solid Onshape
  facet normal 0 0 -1
    outer loop
      vertex 1.98939 6.05838 2
      vertex 1.98939 -6.05838 2
      vertex 0 6.05838 2
    endloop
  endfacet
  facet normal 0 0 -1
    outer loop
      vertex 1.98939 -6.05838 2
      vertex 0 -6.05838 2
      vertex 0 6.05838 2
    endloop
  endfacet
  facet normal 0 0 1
    outer loop
      vertex 1.98939 -6.05838 3
      vertex 1.98939 6.05838 3
      vertex 0 -6.05838 3
    endloop
  endfacet
  facet normal 0 0 1
    outer loop
      vertex 1.98939 6.05838 3
      vertex 0 6.05838 3
      vertex 0 -6.05838 3
    endloop
  endfacet
  facet normal -1 0 0
    outer loop
      vertex 0 -6.05838 3
      vertex 0 6.05838 3
      vertex 0 -6.05838 2
    endloop
  endfacet
  facet normal -1 0 0
    outer loop
      vertex 0 6.05838 3
      vertex 0 6.05838 2
      vertex 0 -6.05838 2
    endloop
  endfacet
  facet normal 1 0 0
    outer loop
      vertex 1.98939 6.05838 3
      vertex 1.98939 -6.05838 3
      vertex 1.98939 6.05838 2
    endloop
  endfacet
  facet normal 1 0 0
    outer loop
      vertex 1.98939 -6.05838 3
      vertex 1.98939 -6.05838 2
      vertex 1.98939 6.05838 2
    endloop
  endfacet
  facet normal 0 1 0
    outer loop
      vertex 0 6.05838 3
      vertex 1.98939 6.05838 3
      vertex 0 6.05838 2
    endloop
  endfacet
  facet normal 0 1 0
    outer loop
      vertex 1.98939 6.05838 3
      vertex 1.98939 6.05838 2
      vertex 0 6.05838 2
    endloop
  endfacet
  facet normal 0 -1 0
    outer loop
      vertex 1.98939 -6.05838 3
      vertex 0 -6.05838 3
      vertex 1.98939 -6.05838 2
    endloop
  endfacet
  facet normal 0 -1 0
    outer loop
      vertex 0 -6.05838 3
      vertex 0 -6.05838 2
      vertex 1.98939 -6.05838 2
    endloop
  endfacet
  facet normal 0 0 1
    outer loop
      vertex -3.75671 -0.642972 2
      vertex -4.91771 -0.642972 2
      vertex -3.75671 -6.0868 2
    endloop
  endfacet
  facet normal 0 0 1
    outer loop
      vertex -4.91771 -0.642972 2
      vertex -4.91771 -6.0868 2
      vertex -3.75671 -6.0868 2
    endloop
  endfacet
  facet normal 0 0 -1
    outer loop
      vertex -4.91771 -0.642972 0
      vertex -3.75671 -0.642972 0
      vertex -4.91771 -6.0868 0
    endloop
  endfacet
  facet normal 0 0 -1
    outer loop
      vertex -3.75671 -0.642972 0
      vertex -3.75671 -6.0868 0
      vertex -4.91771 -6.0868 0
    endloop
  endfacet
  facet normal 0 -1 0
    outer loop
      vertex -3.75671 -6.0868 2
      vertex -4.91771 -6.0868 2
      vertex -3.75671 -6.0868 0
    endloop
  endfacet
  facet normal 0 -1 0
    outer loop
      vertex -4.91771 -6.0868 2
      vertex -4.91771 -6.0868 0
      vertex -3.75671 -6.0868 0
    endloop
  endfacet
  facet normal 1 0 0
    outer loop
      vertex -3.75671 -0.642972 2
      vertex -3.75671 -6.0868 2
      vertex -3.75671 -0.642972 0
    endloop
  endfacet
  facet normal 1 0 0
    outer loop
      vertex -3.75671 -6.0868 2
      vertex -3.75671 -6.0868 0
      vertex -3.75671 -0.642972 0
    endloop
  endfacet
  facet normal 0 1 0
    outer loop
      vertex -4.91771 -0.642972 2
      vertex -3.75671 -0.642972 2
      vertex -4.91771 -0.642972 0
    endloop
  endfacet
  facet normal 0 1 0
    outer loop
      vertex -3.75671 -0.642972 2
      vertex -3.75671 -0.642972 0
      vertex -4.91771 -0.642972 0
    endloop
  endfacet
  facet normal -1 0 0
    outer loop
      vertex -4.91771 -6.0868 2
      vertex -4.91771 -0.642972 2
      vertex -4.91771 -6.0868 0
    endloop
  endfacet
  facet normal -1 0 0
    outer loop
      vertex -4.91771 -0.642972 2
      vertex -4.91771 -0.642972 0
      vertex -4.91771 -6.0868 0
    endloop
  endfacet
endsolid Onshape
